<?xml version="1.0" standalone="no"?><!DOCTYPE svg PUBLIC "-//W3C//DTD SVG 1.1//EN" "http://www.w3.org/Graphics/SVG/1.1/DTD/svg11.dtd"><svg t="1742636016321" class="icon" viewBox="0 0 1024 1024" version="1.1" xmlns="http://www.w3.org/2000/svg" p-id="2705" xmlns:xlink="http://www.w3.org/1999/xlink" width="200" height="200"><path d="M106.666667 106.666667h51.2v236.8H106.666667z" fill="#347DFF" p-id="2706"></path><path d="M106.666667 106.666667h236.8v51.2H106.666667zM106.666667 866.133333h236.8V917.333333H106.666667z" fill="#347DFF" p-id="2707"></path><path d="M106.666667 680.533333h51.2V917.333333H106.666667zM680.533333 106.666667H917.333333v51.2H680.533333z" fill="#347DFF" p-id="2708"></path><path d="M866.133333 106.666667H917.333333v236.8h-51.2z" fill="#347DFF" p-id="2709"></path><path d="M866.133333 680.533333H917.333333V917.333333h-51.2z" fill="#347DFF" p-id="2710"></path><path d="M680.533333 866.133333H917.333333V917.333333H680.533333z" fill="#347DFF" p-id="2711"></path><path d="M477.866667 279.466667h68.266666v473.6h-68.266666zM612.266667 379.733333h68.266666v270.933334h-68.266666zM343.466667 379.733333h68.266666v270.933334h-68.266666zM209.066667 465.066667H277.333333v100.266666H209.066667zM748.8 465.066667h68.266667v100.266666h-68.266667z" fill="#347DFF" p-id="2712"></path><path d="M106.666667 505.6h85.333333v17.066667H106.666667zM832 505.6h85.333333v17.066667h-85.333333zM503.466667 108.8h17.066666v85.333333h-17.066666zM503.466667 832h17.066666v85.333333h-17.066666z" fill="#347DFF" p-id="2713"></path></svg>